<?xml version="1.0" standalone="no"?>
<!DOCTYPE svg PUBLIC "-//W3C//DTD SVG 20010904//EN"
 "http://www.w3.org/TR/2001/REC-SVG-20010904/DTD/svg10.dtd">
<svg version="1.0" xmlns="http://www.w3.org/2000/svg"
 width="230.000000pt" height="234.000000pt" viewBox="0 0 230.000000 234.000000"
 preserveAspectRatio="xMidYMid meet">

<g transform="translate(0.000000,234.000000) scale(0.100000,-0.100000)"
fill="#000000" stroke="none">
<path d="M1015 2323 c-249 -32 -501 -158 -673 -337 -130 -136 -224 -291 -276
-454 -126 -400 -37 -828 232 -1113 l62 -67 -6 -171 c-7 -164 -6 -171 12 -171
10 0 84 27 164 60 l144 60 86 -34 c280 -111 621 -96 892 40 131 65 202 116
304 218 192 191 307 435 335 711 53 519 -286 1042 -782 1209 -136 46 -353 67
-494 49z m408 -87 c371 -99 668 -400 776 -789 87 -308 13 -681 -184 -937 -289
-375 -792 -527 -1210 -363 -49 19 -102 37 -116 40 -17 3 -64 -12 -143 -46 -64
-28 -121 -51 -127 -51 -6 0 -9 55 -8 144 l2 143 -80 92 c-168 193 -263 444
-263 696 0 294 113 568 324 783 162 166 356 265 616 316 14 2 90 3 170 1 117
-2 164 -8 243 -29z"/>
<path d="M903 1438 c-48 -54 -353 -547 -353 -571 0 -10 7 -20 15 -23 8 -3 101
43 210 105 l197 111 99 -78 c181 -140 205 -155 231 -149 17 5 63 60 150 179
69 95 167 227 217 293 132 174 123 188 -60 89 -68 -37 -168 -91 -223 -120
l-98 -54 -80 63 c-44 34 -112 88 -151 120 -81 64 -119 73 -154 35z m176 -121
c64 -51 132 -105 152 -120 36 -27 77 -35 95 -18 12 11 232 131 262 142 12 5
22 5 22 0 0 -5 -31 -49 -68 -98 -37 -48 -107 -143 -156 -210 -48 -68 -92 -123
-97 -123 -5 0 -68 46 -140 103 -191 150 -153 144 -314 51 -137 -78 -175 -98
-175 -89 0 4 39 67 214 348 37 59 72 107 78 107 6 0 63 -42 127 -93z"/>
</g>
</svg>
