<?xml version="1.0" standalone="no"?>
<!DOCTYPE svg PUBLIC "-//W3C//DTD SVG 20010904//EN"
 "http://www.w3.org/TR/2001/REC-SVG-20010904/DTD/svg10.dtd">
<svg version="1.0" xmlns="http://www.w3.org/2000/svg"
 width="236.000000pt" height="236.000000pt" viewBox="0 0 236.000000 236.000000"
 preserveAspectRatio="xMidYMid meet">

<g transform="translate(0.000000,236.000000) scale(0.100000,-0.100000)"
fill="#ffffff" stroke="none">
<path d="M955 2330 c-247 -52 -460 -170 -620 -343 -387 -417 -430 -1016 -105
-1475 158 -225 398 -395 644 -457 286 -72 546 -48 801 74 379 182 618 523 666
948 59 519 -287 1050 -791 1217 -175 58 -419 73 -595 36z m506 -73 c117 -31
268 -105 374 -184 346 -258 516 -695 429 -1105 -92 -440 -440 -784 -882 -873
-119 -24 -365 -17 -477 14 -186 52 -342 139 -474 265 -107 103 -168 183 -229
304 -171 335 -171 686 1 1016 155 299 450 519 776 581 121 23 361 14 482 -18z"/>
<path d="M557 1572 c-15 -17 -17 -60 -17 -410 l0 -391 22 -15 c20 -14 95 -16
613 -16 581 0 592 0 613 20 22 21 22 23 22 405 0 372 -1 386 -20 405 -20 20
-33 20 -618 20 -568 0 -600 -1 -615 -18z m1121 -35 c33 -2 30 -5 -94 -102 -70
-55 -186 -149 -258 -208 -72 -60 -136 -111 -143 -114 -6 -2 -76 47 -155 109
-79 63 -201 160 -271 216 l-129 101 164 3 c165 3 825 -1 886 -5z m82 -367 c0
-192 -3 -350 -7 -349 -5 0 -95 85 -202 188 l-194 188 134 109 c147 120 263
213 267 214 1 0 2 -157 2 -350z m-961 180 c105 -83 191 -155 191 -158 0 -8
-387 -365 -401 -370 -5 -2 -9 144 -9 343 0 295 2 346 14 342 8 -3 100 -74 205
-157z m847 -485 c35 -33 64 -63 64 -67 0 -12 -1080 -10 -1080 1 0 5 4 11 9 13
5 2 93 80 195 173 103 94 190 171 195 173 4 1 36 -20 71 -48 36 -27 70 -50 76
-50 6 0 42 24 80 54 l68 55 128 -122 c71 -67 158 -149 194 -182z"/>
</g>
</svg>
