<?xml version="1.0" standalone="no"?>
<!DOCTYPE svg PUBLIC "-//W3C//DTD SVG 20010904//EN"
 "http://www.w3.org/TR/2001/REC-SVG-20010904/DTD/svg10.dtd">
<svg version="1.0" xmlns="http://www.w3.org/2000/svg"
 width="236.000000pt" height="236.000000pt" viewBox="0 0 236.000000 236.000000"
 preserveAspectRatio="xMidYMid meet">

<g transform="translate(0.000000,236.000000) scale(0.100000,-0.100000)"
fill="#ffffff" stroke="none">
<path d="M972 2336 c-352 -67 -625 -260 -807 -570 -65 -112 -118 -252 -140
-371 -26 -137 -17 -376 19 -510 149 -551 677 -922 1231 -865 143 14 272 48
383 100 366 172 617 508 678 910 18 120 18 190 -1 313 -52 344 -265 665 -563
845 -78 48 -227 109 -322 132 -111 28 -370 36 -478 16z m488 -80 c139 -38 297
-120 405 -209 228 -189 368 -439 411 -731 30 -203 -7 -412 -110 -621 -264
-534 -916 -768 -1452 -521 -203 94 -383 260 -502 462 -108 185 -166 450 -142
652 60 502 422 894 915 991 28 5 124 8 215 7 140 -3 179 -8 260 -30z"/>
<path d="M1630 1701 c-24 -8 -237 -94 -645 -261 -104 -43 -257 -106 -340 -140
-146 -59 -185 -85 -185 -119 1 -36 30 -52 156 -88 204 -57 176 -62 392 65 103
60 198 115 211 122 l24 12 -21 -28 c-11 -16 -75 -78 -141 -139 -67 -60 -124
-118 -127 -129 -9 -26 6 -38 350 -276 151 -105 177 -111 230 -57 32 32 33 36
99 407 114 636 111 597 57 625 -16 8 -30 15 -32 14 -2 0 -14 -4 -28 -8z m50
-75 c0 -13 -29 -183 -65 -377 -36 -195 -72 -392 -81 -439 -17 -92 -35 -130
-62 -130 -9 0 -85 47 -167 105 -83 58 -183 126 -222 151 -40 25 -73 49 -73 54
0 5 24 27 53 50 81 65 379 360 374 373 -1 5 -12 16 -23 23 -17 11 -52 -7 -309
-161 -159 -96 -298 -174 -308 -175 -34 0 -278 73 -274 83 3 11 146 72 592 252
182 73 373 152 425 174 113 48 140 51 140 17z"/>
</g>
</svg>
