<?xml version="1.0" standalone="no"?>
<!DOCTYPE svg PUBLIC "-//W3C//DTD SVG 20010904//EN"
 "http://www.w3.org/TR/2001/REC-SVG-20010904/DTD/svg10.dtd">
<svg version="1.0" xmlns="http://www.w3.org/2000/svg"
 width="232.000000pt" height="233.000000pt" viewBox="0 0 232.000000 233.000000"
 preserveAspectRatio="xMidYMid meet">

<g transform="translate(0.000000,233.000000) scale(0.100000,-0.100000)"
fill="#000000" stroke="none">
<path d="M975 2305 c-317 -53 -583 -226 -769 -499 -65 -95 -101 -169 -141
-289 -48 -143 -58 -225 -52 -407 4 -130 9 -169 32 -245 35 -115 80 -212 138
-299 26 -38 47 -73 47 -78 0 -5 -20 -93 -45 -195 -25 -101 -45 -189 -45 -194
0 -24 41 -17 217 36 l189 56 60 -35 c143 -86 311 -134 495 -143 615 -31 1124
407 1199 1031 25 211 -29 482 -133 666 -90 160 -222 309 -359 406 -235 166
-546 236 -833 189z m460 -79 c128 -37 295 -123 390 -199 135 -109 225 -224
304 -387 156 -324 156 -654 -1 -965 -63 -125 -127 -213 -222 -303 -326 -309
-794 -389 -1193 -202 -46 21 -97 49 -114 61 -27 19 -36 21 -73 12 -48 -12
-274 -79 -300 -89 -15 -6 -17 -3 -12 12 7 23 73 291 78 319 2 12 -14 46 -39
83 -81 119 -144 272 -169 412 -16 90 -18 261 -4 349 25 149 103 337 197 470
58 83 194 217 274 272 124 84 314 160 454 182 17 3 100 4 185 2 133 -2 168 -6
245 -29z"/>
<path d="M725 1665 c-53 -19 -121 -96 -140 -159 -40 -135 0 -279 134 -480 169
-255 461 -436 702 -436 166 0 299 102 299 229 0 23 -4 50 -9 60 -11 20 -137
97 -224 136 -68 32 -84 26 -146 -52 -23 -29 -46 -53 -52 -53 -5 0 -38 14 -72
31 -71 36 -217 176 -261 251 l-28 48 46 58 c25 32 46 68 46 80 0 12 -29 81
-65 152 -70 140 -81 150 -153 150 -20 -1 -55 -7 -77 -15z m121 -49 c1 -1 30
-54 64 -119 l62 -117 -35 -40 c-54 -59 -71 -97 -58 -128 49 -107 213 -272 326
-328 93 -46 110 -42 172 36 27 33 55 60 63 60 17 0 138 -68 189 -107 31 -24
33 -29 28 -70 -6 -58 -51 -106 -126 -134 -114 -43 -308 -3 -468 97 -197 122
-404 401 -435 586 -20 113 28 219 116 259 25 11 52 15 71 12 16 -3 31 -6 31
-7z"/>
</g>
</svg>
